<svg id="Layer_1" data-name="Layer 1" xmlns="http://www.w3.org/2000/svg" xmlns:xlink="http://www.w3.org/1999/xlink" viewBox="0 0 957.5 561.8"><defs><style>.cls-1{fill:#d3a862;}.cls-1,.cls-2,.cls-3,.cls-4,.cls-5,.cls-6,.cls-7,.cls-8,.cls-9{stroke:#d3a862;stroke-miterlimit:10;}.cls-2{fill:url(#linear-gradient);}.cls-3{fill:url(#linear-gradient-2);}.cls-4{fill:url(#linear-gradient-3);}.cls-5{fill:url(#linear-gradient-4);}.cls-6{fill:url(#linear-gradient-5);}.cls-7{fill:url(#linear-gradient-6);}.cls-8{fill:url(#linear-gradient-7);}.cls-9{fill:url(#linear-gradient-8);}</style><linearGradient id="linear-gradient" x1="631.77" y1="636.14" x2="387.38" y2="391.75" gradientUnits="userSpaceOnUse"><stop offset="0" stop-color="#e8ad2f"/><stop offset="0.11" stop-color="#c45635"/><stop offset="0.25" stop-color="#e07735"/><stop offset="0.28" stop-color="#e07b34"/><stop offset="0.38" stop-color="#e28b30"/><stop offset="0.47" stop-color="#e3912f"/><stop offset="0.53" stop-color="#eb4c2f"/><stop offset="0.75" stop-color="#e38c1b"/><stop offset="1" stop-color="#e8484f"/></linearGradient><linearGradient id="linear-gradient-2" x1="516.61" y1="516.55" x2="565.9" y2="516.55" gradientUnits="userSpaceOnUse"><stop offset="0" stop-color="#d3a862"/><stop offset="0.25" stop-color="#e09639"/><stop offset="1" stop-color="#d3a862"/></linearGradient><linearGradient id="linear-gradient-3" x1="458.71" y1="515.66" x2="509.49" y2="515.66" xlink:href="#linear-gradient-2"/><linearGradient id="linear-gradient-4" x1="406.71" y1="474.62" x2="457.77" y2="474.62" gradientUnits="userSpaceOnUse"><stop offset="0" stop-color="#e8ad2f"/><stop offset="0.25" stop-color="#e07735"/><stop offset="0.28" stop-color="#e07b34"/><stop offset="0.38" stop-color="#e28b30"/><stop offset="0.47" stop-color="#e3912f"/><stop offset="0.75" stop-color="#e38c1b"/><stop offset="1" stop-color="#e8484f"/></linearGradient><linearGradient id="linear-gradient-5" x1="33.52" y1="417.2" x2="432.43" y2="417.2" xlink:href="#linear-gradient-2"/><linearGradient id="linear-gradient-6" x1="718.61" y1="417.23" x2="990" y2="417.23" xlink:href="#linear-gradient-2"/><linearGradient id="linear-gradient-7" x1="212.49" y1="416.06" x2="379.59" y2="416.06" xlink:href="#linear-gradient-2"/><linearGradient id="linear-gradient-8" x1="591.81" y1="388.26" x2="866.16" y2="388.26" xlink:href="#linear-gradient-2"/></defs><path class="cls-1" d="M487.8,789.6c-75.9-7.1-149.5-45.6-197.4-103.5-12.8-15.5-17.2-21.3-25.2-34.2-16.4-26.1-29.6-56.7-36-83.1-1.3-5.2-2.3-9.8-2.3-10.3s6.2-.6,13.8-.5l13.7.3,2.6,9.4c13.9,49.1,44.5,96.9,82.8,129.6,43,36.6,93.1,58.3,148.9,64.3,14.1,1.5,45.2.6,61.3-1.9,54.3-8.3,100-31,144.2-71.3,32-29.4,60.3-75.5,72.8-119l3.1-11.1,13.7-.3,13.6-.3-2.3,9.7c-8.2,34.7-25,71.1-47,101.1-14.5,19.6-36.5,42.9-53.8,56.8-10.2,8.1-34.2,24-47.4,31.4-24.9,13.8-58.2,25-89.9,30.1-21,3.5-49.2,4.6-69.2,2.8Z" transform="translate(-33 -229.2)"/><path class="cls-2" d="M504.2,713.7l-23.9-14.1C456.1,685.3,344,618.2,342,616.8s-1.9-12.8-1.6-145.3V419.4l6-3.4,17.5-10.4c39.8-23.9,83.9-49.9,100.9-59.4l33.5-19c7.6-4.2,14.1-7.8,14.3-7.8s5.9,3.1,12.5,6.9L554,342.6c9.3,5.2,20.7,11.6,25.3,14.4l28.8,16.5c11.3,6.5,27.1,15.8,35.2,20.7l26.6,16.1,13.9,8.3,2.1,1.2v195l-2.1,1.9c-2.4,2.1-10.7,7.1-28.9,17.6-12.1,7.1-34.2,20-88.2,52.1-35.3,20.9-54.1,31.9-54.6,31.9s-3.7-2-7.9-4.6Zm15-33.5c5.8-9.9,8.7-14.9,21.6-38.1l8.2-14.8h11.6c6.4,0,11.7.4,11.7.8s-23.2,39.9-26.5,44.5c-1,1.5-1.7,2.8-1.5,3.1s6.3-3.2,13.5-7.5c19-11.3,70.3-41.1,76.9-44.5l5.6-2.9H512.7c-85.2,0-127.2.3-126.3.9s35.2,20.6,65.7,38.2c12.1,7,23.5,13.7,25.3,14.9,3.6,2.4,5,2.2,2.7-.3s-27-45.8-27-47.4,5.1-.1,11.4.2l11.5.5,1.9,3.2c.9,1.8,6.1,10.7,11.3,19.7s12.5,21.6,16,28,6.7,11.4,7.3,11.2,3.6-4.5,6.7-9.7Zm-83-80.4c0-.9-19.3-35.2-25.8-46.2-2.2-3.6-4.6-7.8-5.4-9.3l-1.5-2.8-2,4.2c-2,3.8-13.3,23.7-26,45.7-2.8,4.8-5,8.9-5,9s14.7.3,32.8.2,32.9-.4,32.9-.8Zm127.8-.4c.8-.9,4.9-7.8,9.2-15.3l14.4-24.9c3.6-6.2,10.1-17.7,14.4-25.7l7.9-14.4-7.7-13.7-21.8-38.2L564.1,439c-1.9-3.3-2.7-3.9-6.1-4.5-6.9-1.1-189.5.6-188.6,1.7s3.1,5.2,5.8,10.4c13.8,26.1,58.4,106.2,71.3,127.7l11.2,18.9c2.6,4.6,4.5,6.9,6,7.1s23.8.5,50.5.6c45,.1,48.5,0,49.8-1.5Zm90.4.7c.3-.5-5.5-11.8-12.9-25.1-18.5-33-18.6-33.1-19.4-33.1s-1.3,1.1-2.1,2.6c-3.9,6.7-30.8,55.7-30.8,56s64.6.5,65.2-.4ZM373.1,554c3.9-6.4,9.7-16.3,13.1-22l6.2-10.2-6.7-13.3c-7-13.6-25.6-47.7-25.8-47.2s-.1,26.1.1,57.6l.2,57.2,3.1-5.2C364.8,568,369.4,560.4,373.1,554Zm292.6-36.1V460.2l-2.3,4.4c-2.3,4.7-23.3,42.6-25.4,46-1.1,1.8-1.3,1.7-3.5-2.4l-5.7-10.7-3.4-6.3,3.1-6.4c1.7-3.5,5.5-10.5,8.5-15.7,9.6-16.6,18.9-33.6,18.5-34s-16-.1-35.2,0l-34.7.2,20.2,35.2c11.1,19.4,26.8,47.1,35,61.5l19.8,34.9c2.8,4.8,5.1,8.7,5.1,8.8V517.9ZM450.4,412.6c.8-.9,7.1-11,13.9-22.3s14.1-23.1,16.1-26a35.6,35.6,0,0,0,3.7-5.9c0-.3-1.8.6-4,2.1s-12.8,7.9-23.7,14.1l-37.3,21.7c-9.7,5.7-21,12.1-25.2,14.2s-7.5,4.1-7.5,4.4,14,.3,31.2-.1c28.1-.5,31.3-.8,32.8-2.2Zm99.2,1.8c-.3-.7-27.9-49.3-33.8-59.6l-3.8-6.5-2.3,4.6c-1.3,2.5-5.7,10.3-9.7,17.2-15.2,26.6-24.4,43.2-24.4,44s13.7,1,37.2,1C533.1,415.2,549.8,414.8,549.6,414.4Zm80.7-4.9-23.8-13.6c-13.5-7.9-26.9-15.6-52.1-29.7-6.4-3.7-12.4-7.4-13.3-8.1s-2.1-.7.1,2.4c1,1.4,8.7,14,17,27.9s15.6,25.6,16.1,25.9,15.4.6,33.3.6H640l-9.7-5.5Z" transform="translate(-33 -229.2)"/><path class="cls-3" d="M534.9,548.3a19.2,19.2,0,0,1-12.6-8c-4.6-6.6-5.7-11.1-5.7-23.8-.1-10.1.2-12.5,2.1-17.1,4.3-11.1,10.2-15.1,22.1-15.2,6.6,0,8.2.3,12,2.6,9,5.2,13.1,14.7,13.1,29.7s-4.3,24.7-12.8,29.5c-4.4,2.5-12.2,3.6-18.2,2.3Zm10.9-12.6c3.2-2.3,5-6.5,5.6-13.4.7-9.3-.4-18.3-3-21.9s-7.7-5.6-11.2-3.2-5.1,5.2-6.4,12.6c-1.9,11,1.2,24.5,6.1,26.4C540.1,537.6,543.5,537.4,545.8,535.7Z" transform="translate(-33 -229.2)"/><path class="cls-4" d="M458.7,546a42.9,42.9,0,0,1,1.5-6.6c1.9-6.6,8.1-13.4,18.2-19.9s14.1-10,14.1-14.2-2.1-7.5-7.6-7.5-8.7,2.5-9.8,8.3l-.6,4-7.2-.3-7.2-.3.3-4.2c1-14,12.5-22.8,28.2-21.3,13.4,1.3,21.2,10.5,19.4,23.1-.9,6.3-5.4,11.2-17.8,19.3-5.4,3.5-9.9,6.7-9.9,7.1s6.5,1,14.4,1l14.2.3.3,6.4.3,6.3H484.1c-22.7,0-25.4-.2-25.4-1.5Z" transform="translate(-33 -229.2)"/><path class="cls-5" d="M411.8,498.1l-5.1-9.9,2.1-3.5c1.1-1.9,7.2-12.4,13.4-23.3l11.4-20h12.2c6.6,0,12,.4,12,.9s-5.7,10.1-12.5,21.4-15.8,25.7-19.6,32.2-7.4,11.7-7.9,11.9-3.2-4.2-6-9.7Z" transform="translate(-33 -229.2)"/><path class="cls-6" d="M160.4,531.8c-1.4-.3-2.9-1.9-4.6-5.2s-4.2-8.1-6.4-11.9c-8-14.5-29.4-53.4-53.5-97.7C65,360.2,46.7,326.7,40,315.1c-3.6-6.3-6.5-11.6-6.5-12s89.7-.7,199.5-.8c153.2-.2,199.4,0,199.4.9s-4.5,7.2-15.9,21.7l-6.1,7.7H187.5v65c0,35.7-.1,73.2-.2,83.3l-.2,18.3,43,.2,42.9.2V442.4h31.9l-.2,44.8-.3,44.8H233.4C194.5,532.2,161.6,532,160.4,531.8Zm-7.2-198c-.6-1.6-64.3-1.8-64.3-.2a8.1,8.1,0,0,0,1.8,3.5c.9,1.4,5.1,9.1,9.5,17s9.9,18.4,12.6,23,6.1,10.8,7.5,13.7,9.4,17.1,17.8,31.9l15.1,26.7.3-57.2C153.6,360.7,153.5,334.3,153.2,333.8Z" transform="translate(-33 -229.2)"/><path class="cls-7" d="M719.2,531.6c-.2-.1-.4-20.2-.5-44.7V442.4h31.1v57.2h90.9l2.8-3.9c4.3-6.3,35.3-60.2,49-84.8L909.7,380c15.9-28.1,24.7-44.2,25.1-45.6s1.3-1.6-21.5-1.7H894.2V302.1l47.6.2c26.2.2,47.9.6,48.2.8s-.5,2.1-1.5,3.9-6,10.9-10.9,19.9c-14.4,26.5-35.6,65.3-51,92.9-7.8,14.2-18.6,33.9-23.9,43.7s-12.3,22.5-15.5,28.2l-13.6,24.4c-4.2,7.7-8.5,14.6-9.3,15.3s-14.3,1.2-73.1.9c-39.5-.1-71.8-.5-72-.7Z" transform="translate(-33 -229.2)"/><path class="cls-8" d="M213.7,473.7c-1.2-.3-1.4-7.4-1.1-57.9.2-31.5.5-57.5.6-57.7s37.6-.1,83.3,0l83.1.3-18.2,14.5-18.1,14.6-48.6.4-48.5.5-.2,4.7c-.1,2.6-.3,21.9-.3,42.8v38.2H230.4c-8.4,0-15.9-.2-16.7-.4Z" transform="translate(-33 -229.2)"/><path class="cls-9" d="M777.6,473.6c-.4-.2-.7-19.7-.7-43.1V388l-47.1-.3-47.2-.2-9.9-8L654.6,365c-8.3-6.5-9.9-8.7-6-7.7,1.1.3,37.4.6,80.6.6h78.7l.2,40.2.2,40.1,13-21.5,12.9-21.5V332.6H616.8l-4.3-5c-2.3-2.6-7.9-9.3-12.4-14.8l-8.3-9.8,5.1-.5c2.8-.3,64.6-.4,137.2-.2l132.1.2-.3,50.5-.3,50.4-4.1,7.1c-16,27.2-36.3,60.8-37.5,62.2s-3.6,1.6-23.6,1.6c-12.2,0-22.6-.3-22.8-.7Z" transform="translate(-33 -229.2)"/><path class="cls-1" d="M356.4,277.4c1.8-1,8.2-4.5,14.2-8,11.6-6.7,36.5-18.5,47.3-22.5,62.5-23.4,130.3-22.9,191.2,1.3,12.5,4.9,36.9,17,50,24.8l10.3,6.1H639.6c-27.4,0-30.1-.2-33.3-1.8-14.1-7.2-43.2-15.6-63.6-18.5-13.7-2-47-2.3-58.2-.5-23.7,3.7-41.1,8.4-59.2,16.1l-11.2,4.7H383.6C353.9,279,353.2,279,356.4,277.4Z" transform="translate(-33 -229.2)"/></svg>